<?xml version="1.0" standalone="no"?>
<!DOCTYPE svg PUBLIC "-//W3C//DTD SVG 1.1//EN" "http://www.w3.org/Graphics/SVG/1.1/DTD/svg11.dtd" >
<svg xmlns="http://www.w3.org/2000/svg" xmlns:svg="http://www.w3.org/2000/svg" xmlns:xlink="http://www.w3.org/1999/xlink" viewBox="0 0 1024 1024" style="max-height: 100%; max-width: 50%; transform: translate(-0.297px);"><path d="M463 639.3626086852Q463 652.6722553428 472 569.5Q474 617.2878776086 498.5 559Q523 624.672022297 562 557.5Q601 620.0821343096 663 558.5Q786 639.6499865252 819 563Q852 627.6377466495 854 572.5Q859 653.7085278582 861 615Q863 701.5747574145 863 747.5Q863 926.7484168522 861 887Q859 973.9515328667 850 920.5Q845 1008.2684920989 821.5 931.5Q798 967.3611509927 754 933.5Q719 990.2904975281 667 932.5Q593 984.2487082072 543.5 931.5Q494 1001.7658030132 490 927.5Q485 987.3900607973 476 839Q467 795.6418979783 463 687.5Q463 731.0429469705 463 629.5Q463 639.2414513394 463 596.5ZM84 372.2834778285Q87 314.9560455673 116 277.5Q119 323.4785269802 121 277.5Q132 342.5886909515 167 275.5Q202 345.5251163274 242 273.5Q267 305.8887583742 287 270.5Q341 314.0835866816 353.5 291Q366 367.9455127953 366 407.5Q366 518.8140526391 364 488.5Q364 655.7718645222 362.5 646.5Q361 761.174728959 354 687.5Q348 750.2743693647 326.5 698.5Q305 731.6938975219 235 700.5Q214 770.2754876846 197 701.5Q134 761.2303343107 117 688.5Q100 714.4147460043 98 596.5Q83 451.0266564042 83 348.5Q83 411.5186314907 84 324.5ZM530 754.8354818385Q534 805.0561890063 540 790.5Q546 913.9883165297 550 851.5Q550 912.6053089777 573.5 860.5Q597 894.4564529142 669 862.5L784 885.8162863523L787 885.7658603632Q789 882.2766603921 790 799.5Q791 796.9649416487 791 725.5V628.5H525ZM409 438.8982537939Q411 419.847265889 445.5 351.5Q480 356.7802267331 561 194.5Q577 250.0410675526 595 149Q613 151.2766951877 624 115.5Q634 177.4566124548 645 97.5Q656 142.6538745417 663 90.5Q679 163.5562469368 718 128.5Q757 213.8760908495 802 219.5Q820 298.9496509902 841.5 270.5Q863 362.3009224247 876 311.5Q926 390.2932636089 933.5 390Q941 450.7006786407 941 418.5Q941 502.6095867918 924 441.5Q917 515.6871060581 910 445Q903 486.2066707466 899 446.5Q894 470.7150564661 878.5 429.5Q863 464.2578465427 841 385.5Q805 373.2944674416 767.5 289.5Q730 267.4621510137 696 207.5L669 237.75042381L645 242.7546479511Q636 240.1810277465 618 241.5L582 349.5114793704Q539 419.3062806589 505.5 396Q472 476.894047104 456 446.5Q446 480.4660796846 438 451.5Q426 506.9612557134 415.5 442Q405 471.3307872786 405 419.5Q405 462.1443085027 409 403.5ZM157 364.9692376072V374.5Q157 411.8696384133 159 430Q161 503.892099326 165 516.5L172 658.6332003627H287V344.5ZM541 427.5352604755Q561 450.7315171088 622 391.5Q644 454.7075132478 709.5 393Q775 470.789395813 796 403.5Q804 473.743533031 804 422.5Q804 499.0649123802 803 432Q802 463.6719958906 791 452.5Q784 534.6704364196 761.5 462Q739 534.3322547473 670 466.5H591Q557 489.6644950751 548 464.5Q525 529.6803902782 523.5 443Q522 507.4380910025 522 427.5Q522 468.9162172706 541 396.5Z" fill="black"></path></svg>