<?xml version="1.0" standalone="no"?>
<!DOCTYPE svg PUBLIC "-//W3C//DTD SVG 1.1//EN" "http://www.w3.org/Graphics/SVG/1.1/DTD/svg11.dtd" >
<svg xmlns="http://www.w3.org/2000/svg" xmlns:svg="http://www.w3.org/2000/svg" xmlns:xlink="http://www.w3.org/1999/xlink" viewBox="0 0 1024 1024" style="max-height: 100%; max-width: 50%; transform: translate(-0.297px);"><path d="M463.0 596.5Q463.0 576.5 472.0 569.5Q474.0 560.5 498.5 559.0Q523.0 557.5 562.0 557.5Q601.0 557.5 663.0 558.5Q786.0 560.5 819.0 563.0Q852.0 565.5 854.0 572.5Q859.0 578.5 861.0 615.0Q863.0 651.5 863.0 747.5Q863.0 857.5 861.0 887.0Q859.0 916.5 850.0 920.5Q845.0 929.5 821.5 931.5Q798.0 933.5 754.0 933.5Q719.0 933.5 667.0 932.5Q593.0 932.5 543.5 931.5Q494.0 930.5 490.0 927.5Q485.0 912.5 476.0 839.0Q467.0 765.5 463.0 687.5Q463.0 652.5 463.0 629.5Q463.0 607.5 463.0 596.5ZM84.0 324.5Q87.0 277.5 116.0 277.5Q119.0 277.5 121.0 277.5Q132.0 277.5 167.0 275.5Q202.0 273.5 242.0 273.5Q267.0 270.5 287.0 270.5Q341.0 270.5 353.5 291.0Q366.0 311.5 366.0 407.5Q366.0 443.5 364.0 488.5Q364.0 608.5 362.5 646.5Q361.0 684.5 354.0 687.5Q348.0 696.5 326.5 698.5Q305.0 700.5 235.0 700.5Q214.0 701.5 197.0 701.5Q134.0 701.5 117.0 688.5Q100.0 675.5 98.0 596.5Q83.0 416.5 83.0 348.5Q83.0 333.5 84.0 324.5ZM530.0 678.5Q534.0 740.5 540.0 790.5Q546.0 840.5 550.0 851.5Q550.0 858.5 573.5 860.5Q597.0 862.5 669.0 862.5L784.0 860.5L787.0 840.5Q789.0 831.5 790.0 799.5Q791.0 767.5 791.0 725.5V628.5H525.0ZM409.0 403.5Q411.0 398.5 445.5 351.5Q480.0 304.5 561.0 194.5Q577.0 171.5 595.0 149.0Q613.0 126.5 624.0 115.5Q634.0 104.5 645.0 97.5Q656.0 90.5 663.0 90.5Q679.0 92.5 718.0 128.5Q757.0 164.5 802.0 219.5Q820.0 245.5 841.5 270.5Q863.0 295.5 876.0 311.5Q926.0 369.5 933.5 390.0Q941.0 410.5 941.0 418.5Q941.0 435.5 924.0 441.5Q917.0 443.5 910.0 445.0Q903.0 446.5 899.0 446.5Q894.0 446.5 878.5 429.5Q863.0 412.5 841.0 385.5Q805.0 335.5 767.5 289.5Q730.0 243.5 696.0 207.5L669.0 178.5L645.0 203.5Q636.0 216.5 618.0 241.5L582.0 291.5Q539.0 354.5 505.5 396.0Q472.0 437.5 456.0 446.5Q446.0 451.5 438.0 451.5Q426.0 451.5 415.5 442.0Q405.0 432.5 405.0 419.5Q405.0 412.5 409.0 403.5ZM157.0 344.5V374.5Q157.0 389.5 159.0 430.0Q161.0 470.5 165.0 516.5L172.0 628.5H287.0V344.5ZM541.0 396.5Q561.0 391.5 622.0 391.5Q644.0 391.5 709.5 393.0Q775.0 394.5 796.0 403.5Q804.0 411.5 804.0 422.5Q804.0 424.5 803.0 432.0Q802.0 439.5 791.0 452.5Q784.0 459.5 761.5 462.0Q739.0 464.5 670.0 466.5H591.0Q557.0 466.5 548.0 464.5Q525.0 455.5 523.5 443.0Q522.0 430.5 522.0 427.5Q522.0 408.5 541.0 396.5Z" fill="black"></path></svg>